<svg width="29" height="29" viewBox="0 0 29 29" fill="none" xmlns="http://www.w3.org/2000/svg">
<path d="M14.5 20C16.433 20 18 18.433 18 16.5C18 14.567 16.433 13 14.5 13C12.567 13 11 14.567 11 16.5C11 18.433 12.567 20 14.5 20Z" fill="black"/>
<path d="M25 8H21.721C21.511 8.00005 21.3064 7.93401 21.136 7.81124C20.9657 7.68847 20.8383 7.51521 20.772 7.316L20.456 6.367C20.3231 5.96878 20.0683 5.62246 19.7277 5.37711C19.387 5.13176 18.9778 4.99983 18.558 5H10.441C10.0212 5.00011 9.61216 5.13229 9.27169 5.37781C8.93123 5.62333 8.67664 5.96975 8.544 6.368L8.228 7.316C8.16165 7.51521 8.03428 7.68847 7.86395 7.81124C7.69362 7.93401 7.48896 8.00005 7.279 8H4C3.46957 8 2.96086 8.21071 2.58579 8.58579C2.21071 8.96086 2 9.46957 2 10V22C2 22.5304 2.21071 23.0391 2.58579 23.4142C2.96086 23.7893 3.46957 24 4 24H25C25.5304 24 26.0391 23.7893 26.4142 23.4142C26.7893 23.0391 27 22.5304 27 22V10C27 9.46957 26.7893 8.96086 26.4142 8.58579C26.0391 8.21071 25.5304 8 25 8ZM14.5 22C11.468 22 9 19.532 9 16.5C9 13.468 11.468 11 14.5 11C17.532 11 20 13.468 20 16.5C20 19.532 17.532 22 14.5 22ZM20.5 12C20.2348 12 19.9804 11.8946 19.7929 11.7071C19.6054 11.5196 19.5 11.2652 19.5 11C19.5 10.7348 19.6054 10.4804 19.7929 10.2929C19.9804 10.1054 20.2348 10 20.5 10C20.7652 10 21.0196 10.1054 21.2071 10.2929C21.3946 10.4804 21.5 10.7348 21.5 11C21.5 11.2652 21.3946 11.5196 21.2071 11.7071C21.0196 11.8946 20.7652 12 20.5 12Z" fill="black"/>
<path d="M5.5 7H3.5C3.36739 7 3.24021 6.94732 3.14645 6.85355C3.05268 6.75979 3 6.63261 3 6.5C3 6.36739 3.05268 6.24021 3.14645 6.14645C3.24021 6.05268 3.36739 6 3.5 6H5.5C5.63261 6 5.75979 6.05268 5.85355 6.14645C5.94732 6.24021 6 6.36739 6 6.5C6 6.63261 5.94732 6.75979 5.85355 6.85355C5.75979 6.94732 5.63261 7 5.5 7Z" fill="black"/>
</svg>
