<svg width="50" height="50" viewBox="0 0 50 50" fill="none" xmlns="http://www.w3.org/2000/svg">
<path d="M10.4167 43.75C9.27083 43.75 8.29028 43.3424 7.475 42.5271C6.65972 41.7118 6.25139 40.7306 6.25 39.5833V10.4167C6.25 9.27083 6.65833 8.29028 7.475 7.475C8.29167 6.65972 9.27222 6.25139 10.4167 6.25H39.5833C40.7292 6.25 41.7104 6.65833 42.5271 7.475C43.3438 8.29167 43.7514 9.27222 43.75 10.4167V39.5833C43.75 40.7292 43.3424 41.7104 42.5271 42.5271C41.7118 43.3438 40.7306 43.7514 39.5833 43.75H10.4167ZM10.4167 39.5833H39.5833V10.4167H10.4167V39.5833ZM12.5 35.4167H37.5L29.6875 25L23.4375 33.3333L18.75 27.0833L12.5 35.4167ZM17.7083 20.8333C18.5764 20.8333 19.3146 20.5299 19.9229 19.9229C20.5312 19.316 20.8347 18.5778 20.8333 17.7083C20.8319 16.8389 20.5285 16.1014 19.9229 15.4958C19.3174 14.8903 18.5792 14.5861 17.7083 14.5833C16.8375 14.5806 16.1 14.8847 15.4958 15.4958C14.8917 16.1069 14.5875 16.8444 14.5833 17.7083C14.5792 18.5722 14.8833 19.3104 15.4958 19.9229C16.1083 20.5354 16.8458 20.8389 17.7083 20.8333Z" fill="black"/>
</svg>
