<svg width="679" height="50" viewBox="0 0 679 50" fill="none" xmlns="http://www.w3.org/2000/svg">
<g filter="url(#filter0_d_2028_27)">
<path d="M4 2C4 0.89543 4.89543 0 6 0H673C674.105 0 675 0.895431 675 2V40C675 41.1046 674.105 42 673 42H6.00002C4.89545 42 4 41.1046 4 40V2Z" fill="white"/>
<path d="M4.5 2C4.5 1.17157 5.17157 0.5 6 0.5H673C673.828 0.5 674.5 1.17158 674.5 2V40C674.5 40.8284 673.828 41.5 673 41.5H6.00002C5.17158 41.5 4.5 40.8284 4.5 40V2Z" stroke="black" stroke-opacity="0.5"/>
</g>
<defs>
<filter id="filter0_d_2028_27" x="0" y="0" width="679" height="50" filterUnits="userSpaceOnUse" color-interpolation-filters="sRGB">
<feFlood flood-opacity="0" result="BackgroundImageFix"/>
<feColorMatrix in="SourceAlpha" type="matrix" values="0 0 0 0 0 0 0 0 0 0 0 0 0 0 0 0 0 0 127 0" result="hardAlpha"/>
<feOffset dy="4"/>
<feGaussianBlur stdDeviation="2"/>
<feComposite in2="hardAlpha" operator="out"/>
<feColorMatrix type="matrix" values="0 0 0 0 0 0 0 0 0 0 0 0 0 0 0 0 0 0 0.25 0"/>
<feBlend mode="normal" in2="BackgroundImageFix" result="effect1_dropShadow_2028_27"/>
<feBlend mode="normal" in="SourceGraphic" in2="effect1_dropShadow_2028_27" result="shape"/>
</filter>
</defs>
</svg>
