<svg width="250" height="60" viewBox="0 0 250 60" fill="none" xmlns="http://www.w3.org/2000/svg">
<rect width="250" height="60" rx="30" fill="white"/>
<path d="M32.1428 12.355L36.832 24.307L36.9565 24.6244H37.2974H52.1775L40.2254 31.8159L39.8634 32.0337L40.0177 32.427L44.6351 44.1959L32.4006 36.8344L32.1428 36.6792L31.885 36.8344L19.6505 44.1959L24.2678 32.427L24.4221 32.0337L24.0602 31.8159L12.1081 24.6244H26.9881H27.3291L27.4536 24.307L32.1428 12.355Z" fill="#E3F700" stroke="#1F1F1F"/>
<path d="M78.0607 12.355L82.75 24.307L82.8745 24.6244H83.2154H98.0954L86.1434 31.8159L85.7814 32.0337L85.9357 32.427L90.5531 44.1959L78.3185 36.8344L78.0607 36.6792L77.803 36.8344L65.5684 44.1959L70.1858 32.427L70.3401 32.0337L69.9781 31.8159L58.0261 24.6244H72.9061H73.247L73.3715 24.307L78.0607 12.355Z" fill="#E3F700" stroke="#1F1F1F"/>
<path d="M169.898 12.355L174.587 24.307L174.711 24.6244H175.052H189.932L177.98 31.8159L177.618 32.0337L177.773 32.427L182.39 44.1959L170.155 36.8344L169.898 36.6792L169.64 36.8344L157.405 44.1959L162.023 32.427L162.177 32.0337L161.815 31.8159L149.863 24.6244H164.743H165.084L165.208 24.307L169.898 12.355Z" fill="#E3F700" stroke="#1F1F1F"/>
<path d="M123.98 12.355L128.669 24.307L128.793 24.6244H129.134H144.014L132.062 31.8159L131.7 32.0337L131.855 32.427L136.472 44.1959L124.237 36.8344L123.98 36.6792L123.722 36.8344L111.487 44.1959L116.105 32.427L116.259 32.0337L115.897 31.8159L103.945 24.6244H118.825H119.166L119.29 24.307L123.98 12.355Z" fill="#E3F700" stroke="#1F1F1F"/>
<path d="M215.817 12.355L220.506 24.307L220.63 24.6244H220.971H235.851L223.899 31.8159L223.537 32.0337L223.692 32.427L228.309 44.1959L216.074 36.8344L215.817 36.6792L215.559 36.8344L203.324 44.1959L207.942 32.427L208.096 32.0337L207.734 31.8159L195.782 24.6244H210.662H211.003L211.127 24.307L215.817 12.355Z" fill="#F2F3F5" stroke="#1F1F1F"/>
</svg>
