<svg width="34" height="34" viewBox="0 0 34 34" fill="none" xmlns="http://www.w3.org/2000/svg">
<path fill-rule="evenodd" clip-rule="evenodd" d="M16.6667 3.57251C14.3346 3.57208 12.0432 4.18714 10.0212 5.35629C7.9992 6.52543 6.3173 8.20778 5.14338 10.2354C3.96946 12.263 3.34459 14.565 3.33113 16.9116C3.31767 19.2582 3.9161 21.5673 5.06669 23.6084C5.84437 22.5914 6.84407 21.768 7.98849 21.2018C9.13292 20.6356 10.3914 20.3418 11.6667 20.3432H21.6667C22.942 20.3418 24.2005 20.6356 25.3449 21.2018C26.4893 21.768 27.489 22.5914 28.2667 23.6084C29.4173 21.5673 30.0157 19.2582 30.0022 16.9116C29.9888 14.565 29.3639 12.263 28.19 10.2354C27.0161 8.20778 25.3342 6.52543 23.3122 5.35629C21.2901 4.18714 18.9988 3.57208 16.6667 3.57251ZM29.905 27.1789C32.1334 24.2557 33.3387 20.6732 33.3334 16.989C33.3334 7.7266 25.8717 0.218384 16.6667 0.218384C7.46169 0.218384 1.87554e-05 7.7266 1.87554e-05 16.989C-0.00548364 20.6732 1.19986 24.2558 3.42835 27.1789L3.42002 27.2091L4.01169 27.9017C5.57483 29.7406 7.51566 31.2166 9.70041 32.2279C11.8852 33.2392 14.2619 33.7618 16.6667 33.7597C20.0456 33.7659 23.3457 32.7332 26.125 30.7997C27.3099 29.9759 28.3843 29.0019 29.3217 27.9017L29.9134 27.2091L29.905 27.1789ZM16.6667 6.92664C15.3406 6.92664 14.0688 7.45671 13.1312 8.40024C12.1935 9.34378 11.6667 10.6235 11.6667 11.9578C11.6667 13.2922 12.1935 14.5719 13.1312 15.5154C14.0688 16.459 15.3406 16.989 16.6667 16.989C17.9928 16.989 19.2645 16.459 20.2022 15.5154C21.1399 14.5719 21.6667 13.2922 21.6667 11.9578C21.6667 10.6235 21.1399 9.34378 20.2022 8.40024C19.2645 7.45671 17.9928 6.92664 16.6667 6.92664Z" fill="white"/>
</svg>
