<svg width="34" height="34" viewBox="0 0 34 34" fill="none" xmlns="http://www.w3.org/2000/svg">
<path fill-rule="evenodd" clip-rule="evenodd" d="M16.6667 3.33333C14.3346 3.33291 12.0432 3.94415 10.0212 5.10605C7.9992 6.26795 6.3173 7.93987 5.14338 9.95492C3.96946 11.97 3.34459 14.2577 3.33113 16.5897C3.31767 18.9218 3.9161 21.2165 5.06669 23.245C5.84437 22.2343 6.84407 21.416 7.98849 20.8533C9.13292 20.2906 10.3914 19.9987 11.6667 20H21.6667C22.942 19.9987 24.2005 20.2906 25.3449 20.8533C26.4893 21.416 27.489 22.2343 28.2667 23.245C29.4173 21.2165 30.0157 18.9218 30.0022 16.5897C29.9888 14.2577 29.3639 11.97 28.19 9.95492C27.0161 7.93987 25.3342 6.26795 23.3122 5.10605C21.2901 3.94415 18.9988 3.33291 16.6667 3.33333ZM29.905 26.7933C32.1334 23.8883 33.3387 20.328 33.3334 16.6667C33.3334 7.46167 25.8717 0 16.6667 0C7.46169 0 1.87554e-05 7.46167 1.87554e-05 16.6667C-0.00548364 20.328 1.19986 23.8883 3.42835 26.7933L3.42002 26.8233L4.01169 27.5117C5.57483 29.3392 7.51566 30.806 9.70041 31.8111C11.8852 32.8161 14.2619 33.3355 16.6667 33.3333C20.0456 33.3396 23.3457 32.3132 26.125 30.3917C27.3099 29.573 28.3843 28.605 29.3217 27.5117L29.9134 26.8233L29.905 26.7933ZM16.6667 6.66667C15.3406 6.66667 14.0688 7.19345 13.1312 8.13113C12.1935 9.06882 11.6667 10.3406 11.6667 11.6667C11.6667 12.9927 12.1935 14.2645 13.1312 15.2022C14.0688 16.1399 15.3406 16.6667 16.6667 16.6667C17.9928 16.6667 19.2645 16.1399 20.2022 15.2022C21.1399 14.2645 21.6667 12.9927 21.6667 11.6667C21.6667 10.3406 21.1399 9.06882 20.2022 8.13113C19.2645 7.19345 17.9928 6.66667 16.6667 6.66667Z" fill="white"/>
</svg>
