<svg width="34" height="31" viewBox="0 0 34 31" fill="none" xmlns="http://www.w3.org/2000/svg">
<path fill-rule="evenodd" clip-rule="evenodd" d="M16.6667 3.69141C14.3346 3.69103 12.0432 4.22825 10.0212 5.24946C7.9992 6.27066 6.3173 7.74012 5.14338 9.51116C3.96946 11.2822 3.34459 13.2929 3.33113 15.3425C3.31767 17.3922 3.9161 19.4091 5.06669 21.1919C5.84437 20.3036 6.84407 19.5844 7.98849 19.0898C9.13292 18.5953 10.3914 18.3387 11.6667 18.3398H21.6667C22.942 18.3387 24.2005 18.5953 25.3449 19.0898C26.4893 19.5844 27.489 20.3036 28.2667 21.1919C29.4173 19.4091 30.0157 17.3922 30.0022 15.3425C29.9888 13.2929 29.3639 11.2822 28.19 9.51116C27.0161 7.74012 25.3342 6.27066 23.3122 5.24946C21.2901 4.22825 18.9988 3.69103 16.6667 3.69141ZM29.905 24.3105C32.1334 21.7573 33.3387 18.6281 33.3334 15.4102C33.3334 7.31983 25.8717 0.761719 16.6667 0.761719C7.46169 0.761719 1.87554e-05 7.31983 1.87554e-05 15.4102C-0.00548364 18.6281 1.19986 21.7573 3.42835 24.3105L3.42002 24.3369L4.01169 24.9419C5.57483 26.5481 7.51566 27.8373 9.70041 28.7207C11.8852 29.604 14.2619 30.0605 16.6667 30.0586C20.0456 30.0641 23.3457 29.162 26.125 27.4731C27.3099 26.7536 28.3843 25.9029 29.3217 24.9419L29.9134 24.3369L29.905 24.3105ZM16.6667 6.62109C15.3406 6.62109 14.0688 7.08409 13.1312 7.90822C12.1935 8.73236 11.6667 9.85012 11.6667 11.0156C11.6667 12.1811 12.1935 13.2989 13.1312 14.123C14.0688 14.9472 15.3406 15.4102 16.6667 15.4102C17.9928 15.4102 19.2645 14.9472 20.2022 14.123C21.1399 13.2989 21.6667 12.1811 21.6667 11.0156C21.6667 9.85012 21.1399 8.73236 20.2022 7.90822C19.2645 7.08409 17.9928 6.62109 16.6667 6.62109Z" fill="white"/>
</svg>
